<svg width="197" height="38" viewBox="0 0 197 38" fill="none" xmlns="http://www.w3.org/2000/svg">
<path d="M197 0H0V37.6618H197V0Z" fill="#0B5290"/>
<path d="M195.069 1.9314H1.93144V35.7304H195.069V1.9314Z" fill="#014886"/>
<path d="M35.7305 1.9314H1.93144V35.7304H35.7305V1.9314Z" fill="white"/>
<path d="M7.72555 1.9314H1.93144V17.3824H7.72555V1.9314Z" fill="#ED232A"/>
<path d="M7.69658 20.2794H1.93144V35.7304H7.69658V20.2794Z" fill="#ED232A"/>
<path d="M35.7306 1.9314H29.9365V17.3824H35.7306V1.9314Z" fill="#ED232A"/>
<path d="M35.7318 20.2794H29.9666V35.7304H35.7318V20.2794Z" fill="#ED232A"/>
<path d="M35.7302 1.9314H20.2793V7.72551H35.7302V1.9314Z" fill="#ED232A"/>
<path d="M17.3824 1.9314H1.93144V7.72551H17.3824V1.9314Z" fill="#ED232A"/>
<path d="M35.7302 29.9363H20.2793V35.7304H35.7302V29.9363Z" fill="#ED232A"/>
<path d="M17.3824 29.9363H1.93144V35.7304H17.3824V29.9363Z" fill="#ED232A"/>
<path d="M24.1421 13.5197H13.5195V24.1422H24.1421V13.5197Z" fill="#004C8F"/>
<path d="M99.2603 26.5008C98.3283 26.1806 97.4705 25.6758 96.7379 25.0166C96.0639 24.379 95.5193 23.6173 95.1339 22.7733C94.5673 21.5552 94.2869 20.2237 94.3141 18.8806C94.3044 17.7322 94.5044 16.5918 94.9041 15.5152C95.26 14.5385 95.8051 13.6416 96.5081 12.876C97.1617 12.2036 97.9405 11.6656 98.8007 11.2922C99.9208 10.828 101.126 10.6034 102.338 10.6327C103.417 10.628 104.489 10.7953 105.515 11.1281C106.433 11.4148 107.266 11.9247 107.939 12.6123C108.563 13.2637 109.062 14.0241 109.412 14.8556C109.642 15.5513 109.796 16.2702 109.87 16.9994H105.057C105.008 16.3099 104.705 15.6631 104.206 15.1849C103.721 14.752 103.086 14.5269 102.437 14.5582C102.015 14.5517 101.597 14.6438 101.216 14.827C100.835 15.0102 100.502 15.2795 100.243 15.6137C99.5958 16.6226 99.2967 17.8159 99.3917 19.011C99.3575 19.8508 99.4796 20.6898 99.7519 21.4851C99.9494 22 100.305 22.4394 100.767 22.7404C101.267 23.0219 101.835 23.1589 102.408 23.1364C102.748 23.1595 103.089 23.113 103.41 22.9996C103.731 22.8861 104.025 22.7082 104.275 22.4768C104.784 21.9677 105.077 21.2823 105.094 20.5628H110.007C109.94 21.4024 109.741 22.2262 109.417 23.0041C109.084 23.751 108.606 24.424 108.009 24.9837C107.353 25.6515 106.56 26.169 105.684 26.5008C104.68 26.8758 103.613 27.0548 102.541 27.0281C101.425 27.0465 100.314 26.868 99.2603 26.5008ZM182.191 26.5974L178.49 20.3958L177.114 21.7477V26.5974H172.201V11.0286H177.114V16.1747L181.733 11.0286H187.73L182.032 16.9L188.321 26.5993L182.191 26.5974ZM163.948 26.5974L158.707 18.4856V26.5974H153.794V11.0286H158.543L163.914 19.375V11.0286H168.794V26.6003L163.948 26.5974ZM146.588 26.5974L145.999 24.5511H140.922L140.333 26.5974H135.354L140.922 11.0267H146.097L151.665 26.5974H146.588ZM141.872 21.3518H145.115L143.473 15.6784L141.872 21.3518ZM119.661 26.5974V11.0286H127.358C128.814 10.9277 130.271 11.2122 131.583 11.8533C132.139 12.1691 132.598 12.6313 132.91 13.1898C133.222 13.7482 133.375 14.3815 133.352 15.0207C133.339 15.7014 133.144 16.3662 132.787 16.9462C132.43 17.5262 131.925 18.0003 131.324 18.3195C132.083 18.5253 132.751 18.9783 133.224 19.6068C133.698 20.2936 133.94 21.115 133.911 21.9495C133.926 22.57 133.814 23.187 133.584 23.7631C133.376 24.273 133.063 24.7335 132.666 25.1151C132.323 25.4316 131.937 25.6982 131.52 25.9069C131.038 26.1355 130.533 26.3123 130.014 26.4342C129.168 26.5649 128.313 26.6202 127.458 26.5993L119.661 26.5974ZM124.541 23.034H126.638C127.318 23.105 128.003 22.9669 128.603 22.6381C128.754 22.5046 128.876 22.341 128.961 22.1576C129.045 21.9743 129.09 21.7753 129.093 21.5734C129.097 21.3716 129.057 21.1713 128.979 20.9855C128.9 20.7996 128.783 20.6323 128.636 20.4943C128.025 20.1622 127.328 20.0241 126.638 20.0983H124.545L124.541 23.034ZM124.541 17.294H126.472C127.045 17.3568 127.622 17.2292 128.114 16.9309C128.258 16.8094 128.374 16.6578 128.453 16.4867C128.532 16.3157 128.572 16.1295 128.572 15.941C128.575 15.6452 128.484 15.3561 128.31 15.1163C128.116 14.9005 127.867 14.741 127.59 14.6548C127.125 14.5691 126.653 14.5367 126.181 14.5582H124.539L124.541 17.294ZM80.6844 26.5974V11.0286H92.7699V14.8913H85.7282V17.3654H91.362V21.1258H85.7282V26.6022L80.6844 26.5974ZM63.4884 26.5974V11.0286H70.564C71.9768 10.9975 73.3811 11.2558 74.6904 11.7876C75.8578 12.3022 76.8161 13.1976 77.4088 14.3274C78.1003 15.6723 78.4382 17.1711 78.3909 18.6826C78.4003 19.7337 78.2459 20.7799 77.9331 21.7834C77.6827 22.5956 77.3067 23.3636 76.8187 24.0596C76.4445 24.6091 75.9662 25.0799 75.4108 25.4453C74.7873 25.8137 74.1145 26.0914 73.4128 26.27C72.4281 26.5162 71.4145 26.6273 70.3998 26.6003L63.4884 26.5974ZM68.369 22.7047H69.6456C70.3875 22.7462 71.1287 22.6105 71.8078 22.3088C72.3239 22.0153 72.7186 21.5477 72.9212 20.9897C73.2068 20.2659 73.3406 19.4912 73.3143 18.7135C73.328 18.1808 73.2732 17.6485 73.1511 17.1298C73.0491 16.6954 72.8716 16.2822 72.6267 15.9092C72.4288 15.602 72.1436 15.3609 71.8078 15.2168C71.1344 14.9846 70.4227 14.8839 69.7113 14.9203H68.4008L68.369 22.7047ZM55.2356 26.5974V20.5619H50.4536V26.5993H45.376V11.0286H50.4536V16.307H55.2376V11.0286H60.347V26.6003L55.2356 26.5974Z" fill="white"/>
</svg>
