<svg width="144" height="100" viewBox="0 0 144 100" fill="none" xmlns="http://www.w3.org/2000/svg">
<path d="M143.429 50C143.429 77.6142 111.449 100 72 100C32.5511 100 0.571411 77.6142 0.571411 50C0.571411 22.3858 32.5511 0 72 0C111.449 0 143.429 22.3858 143.429 50Z" fill="#326EA2"/>
<path d="M136.286 50C136.286 73.6693 107.504 92.8571 72 92.8571C36.496 92.8571 7.71427 73.6693 7.71427 50C7.71427 26.3307 36.496 7.14286 72 7.14286C107.504 7.14286 136.286 26.3307 136.286 50Z" fill="white"/>
<path d="M60.5052 24.72L52.0023 72.8571H40.2766L48.7794 24.72H60.5052Z" fill="#326694"/>
<path d="M88.6827 24.72C93.6655 24.72 97.4598 25.8629 100.066 28.1486C102.671 30.3886 103.974 33.3143 103.974 36.9257C103.974 37.9771 103.883 38.96 103.7 39.8743C103.151 43.0743 101.757 45.9314 99.517 48.4457C97.277 50.96 94.2827 52.7429 90.5341 53.7943L98.2827 72.8571H85.0484L78.2598 54.6857H75.4484L72.2255 72.8571H60.4998L69.0027 24.72H88.6827ZM91.6998 40.3543C91.7912 39.6229 91.837 39.1429 91.837 38.9143C91.837 37.4514 91.3569 36.3314 90.3969 35.5543C89.4827 34.7314 88.1112 34.32 86.2827 34.32H79.0141L76.8884 46.3886H84.157C86.3055 46.3886 87.9969 45.8629 89.2312 44.8114C90.5112 43.76 91.3341 42.2743 91.6998 40.3543Z" fill="#326694"/>
<path d="M122.854 45.6343H110.991L108.865 57.7714H97.6195L99.7453 45.6343H87.8824L89.7338 35.0057H101.665L103.791 22.8H115.037L112.911 35.0057H124.774L122.854 45.6343Z" fill="white"/>
<path d="M120.688 44.4571H110.802L109.031 54.5714H99.6591L101.431 44.4571H91.5449L93.0877 35.6H103.031L104.802 25.4286H114.173L112.402 35.6H122.288L120.688 44.4571Z" fill="#E92026"/>
</svg>
