<svg width="61" height="43" viewBox="0 0 61 43" fill="none" xmlns="http://www.w3.org/2000/svg">
<path d="M60.3903 21.6929C60.3903 33.2484 47.008 42.6161 30.5 42.6161C13.9921 42.6161 0.609741 33.2484 0.609741 21.6929C0.609741 10.1373 13.9921 0.769653 30.5 0.769653C47.008 0.769653 60.3903 10.1373 60.3903 21.6929Z" fill="#326EA2"/>
<path d="M57.4013 21.6929C57.4013 31.5976 45.3572 39.627 30.5 39.627C15.6429 39.627 3.59877 31.5976 3.59877 21.6929C3.59877 11.7881 15.6429 3.75868 30.5 3.75868C45.3572 3.75868 57.4013 11.7881 57.4013 21.6929Z" fill="white"/>
<path d="M25.6899 11.1141L22.1317 31.2577H17.2249L20.7831 11.1141H25.6899Z" fill="#245C8D"/>
<path d="M37.4811 11.1141C39.5663 11.1141 41.1541 11.5923 42.2444 12.5488C43.3348 13.4862 43.88 14.7105 43.88 16.2217C43.88 16.6617 43.8418 17.073 43.7653 17.4556C43.5357 18.7947 42.9523 19.9903 42.0149 21.0424C41.0775 22.0946 39.8245 22.8406 38.2559 23.2806L41.4984 31.2577H35.9603L33.1195 23.6537H31.9431L30.5944 31.2577H25.6876L29.2458 11.1141H37.4811ZM38.7437 17.6565C38.782 17.3504 38.8011 17.1495 38.8011 17.0539C38.8011 16.4417 38.6002 15.9731 38.1985 15.6478C37.8159 15.3035 37.242 15.1313 36.4768 15.1313H33.4352L32.5456 20.1816H35.5873C36.4864 20.1816 37.1942 19.9616 37.7107 19.5216C38.2463 19.0816 38.5907 18.4599 38.7437 17.6565Z" fill="#245C8D"/>
<path d="M51.7805 19.866H46.8164L45.9268 24.9449H41.2209L42.1104 19.866H37.1462L37.921 15.4183H42.9139L43.8034 10.3106H48.5093L47.6198 15.4183H52.584L51.7805 19.866Z" fill="white"/>
<path d="M50.8741 19.3734H46.7373L45.996 23.6058H42.0744L42.8157 19.3734H38.6789L39.3245 15.667H43.4852L44.2265 11.4106H48.1481L47.4068 15.667H51.5436L50.8741 19.3734Z" fill="#E92026"/>
</svg>
